# xmcd
#
# Track frame offsets: 
#        150
#        12259
#        30014
#        47526
#        67308
#        84677
#        98452
#        114321
#        132261
#        150648
#        169892
#        188687
#
# Disc length: 2579 seconds
#
# Revision: 7
# Processed by: cddbd v1.5.2PL0 Copyright (c) Steve Scherf et al.
# Submitted via: ExactAudioCopyFreeDBPlugin 1.0
#
DISCID=8b0a110c
DTITLE=Amerie - All I Have
DYEAR=2002
DGENRE=R&B
TTITLE0=Why Don't We Fall In Love
TTITLE1=Talkin' To Me
TTITLE2=Nothing Like Loving You
TTITLE3=Can't Let Go
TTITLE4=Need You Tonight
TTITLE5=Got To Be There
TTITLE6=I Just Died
TTITLE7=Hatin' On You
TTITLE8=Float
TTITLE9=Show Me
TTITLE10=All I Have
TTITLE11=Outro
EXTD=Artist:  AmerieCD:  All I Have YEAR: 2002
EXTT0=
EXTT1=
EXTT2=
EXTT3=
EXTT4=
EXTT5=
EXTT6=
EXTT7=
EXTT8=
EXTT9=
EXTT10=
EXTT11=
PLAYORDER=
